# 3ds Max Wavefront OBJ Exporter v0.97b - (c)2007 guruware
# File Created: 12.12.2015 11:05:46

mtllib AttachCube.mtl

#
# object Box002
#

v  6.6011 0.0439 6.1090
v  6.6011 0.0439 4.4372
v  7.8083 0.0439 4.4372
v  6.6011 0.0439 6.9372
v  7.8083 0.0439 6.9372
v  7.8083 2.9444 6.9372
v  7.8083 2.9444 6.1090
v  6.6011 2.9444 6.1090
v  6.6011 2.9444 6.9372
v  7.8083 1.1444 6.9372
v  6.6011 1.1444 6.9372
v  7.8083 1.1444 4.4372
v  7.8083 1.1444 6.1090
v  6.6011 1.1444 4.4372
v  6.6011 1.1444 6.1090
v  4.7991 0.0439 6.9372
v  4.7991 1.1444 6.9372
v  4.7991 1.1444 6.1090
v  4.7991 0.0439 6.1090
# 19 vertices

vn -0.0000 -1.0000 -0.0000
vn 0.0000 1.0000 -0.0000
vn 0.0000 0.0000 1.0000
vn 1.0000 0.0000 -0.0000
vn 0.0000 0.0000 -1.0000
vn -1.0000 0.0000 -0.0000
vn 0.0000 1.0000 0.0000
vn 0.0000 -1.0000 0.0000
vn -0.0000 0.0000 -1.0000
vn -0.0000 -0.0000 -1.0000
# 10 vertex normals

vt 1.0000 0.5000 0.0000
vt 1.0000 1.0000 0.0000
vt 0.0000 1.0000 0.0000
vt 1.0000 0.0000 0.0000
vt 0.0000 0.0000 0.0000
vt 0.0000 0.5000 0.0000
vt 0.5000 1.0000 0.0000
vt 0.5000 0.0000 0.0000
# 8 texture coords

g Box002
usemtl 01___Default
s 2
f 1/1/1 2/2/1 3/3/1 4/4/1 
f 4/4/1 3/3/1 5/5/1 
s 4
f 6/4/2 7/1/2 8/6/2 9/5/2 
s 8
f 4/5/3 5/4/3 10/2/3 11/3/3 
s 16
f 5/5/4 3/4/4 12/2/4 13/7/4 
f 5/5/4 13/7/4 10/3/4 
s 32
f 3/5/5 2/4/5 14/2/5 12/3/5 
s 64
f 1/8/6 15/7/6 14/3/6 2/5/6 
s 4
f 12/2/7 14/3/7 15/6/7 13/1/2 
s 64
f 16/4/6 17/2/6 18/7/6 19/8/6 
s off
f 1/1/8 4/4/8 16/4/8 19/8/8 
f 4/5/3 11/3/3 17/2/3 16/4/3 
f 11/5/2 15/6/2 18/7/2 17/2/2 
f 15/7/9 1/8/9 19/8/9 18/7/9 
f 11/3/3 10/2/3 6/4/3 9/5/3 
f 10/3/4 13/7/4 7/1/4 6/4/4 
f 13/1/10 15/6/10 8/6/10 7/1/10 
f 15/6/6 11/5/6 9/5/6 8/6/6 
# 16 polygons - 2 triangles

#
# object Box003
#

v  -2.1761 1.2151 6.1090
v  -2.1761 1.2151 4.4372
v  -2.1761 0.0080 4.4372
v  -2.1761 1.2151 6.9372
v  -2.1761 0.0080 6.9372
v  0.7244 0.0080 6.9372
v  0.7244 0.0080 6.1090
v  0.7244 1.2151 6.1090
v  0.7244 1.2151 6.9372
v  -1.0756 0.0080 6.9372
v  -1.0756 1.2151 6.9372
v  -1.0756 0.0080 4.4372
v  -1.0756 0.0080 6.1090
v  -1.0756 1.2151 4.4372
v  -1.0756 1.2151 6.1090
v  -2.1761 3.0171 6.9372
v  -1.0756 3.0171 6.9372
v  -1.0756 3.0171 6.1090
v  -2.1761 3.0171 6.1090
# 19 vertices

vn -1.0000 0.0000 -0.0000
vn 1.0000 -0.0000 -0.0000
vn 0.0000 0.0000 1.0000
vn -0.0000 -1.0000 -0.0000
vn 0.0000 0.0000 -1.0000
vn 0.0000 1.0000 -0.0000
vn 1.0000 -0.0000 0.0000
vn -1.0000 0.0000 0.0000
vn -0.0000 0.0000 -1.0000
# 9 vertex normals

vt 1.0000 0.5000 0.0000
vt 1.0000 1.0000 0.0000
vt 0.0000 1.0000 0.0000
vt 1.0000 0.0000 0.0000
vt 0.0000 0.0000 0.0000
vt 0.0000 0.5000 0.0000
vt 0.5000 1.0000 0.0000
vt 0.5000 0.0000 0.0000
# 8 texture coords

g Box003
usemtl 01___Default
s 2
f 20/9/11 21/10/11 22/11/11 23/12/11 
f 23/12/11 22/11/11 24/13/11 
s 4
f 25/12/12 26/9/12 27/14/12 28/13/12 
s 8
f 23/13/13 24/12/13 29/10/13 30/11/13 
s 16
f 24/13/14 22/12/14 31/10/14 32/15/14 
f 24/13/14 32/15/14 29/11/14 
s 32
f 22/13/15 21/12/15 33/10/15 31/11/15 
s 64
f 20/16/16 34/15/16 33/11/16 21/13/16 
s 4
f 31/10/17 33/11/17 34/14/17 32/9/12 
s 64
f 35/12/16 36/10/16 37/15/16 38/16/16 
s off
f 20/9/18 23/12/18 35/12/18 38/16/18 
f 23/13/13 30/11/13 36/10/13 35/12/13 
f 30/13/12 34/14/12 37/15/12 36/10/12 
f 34/15/15 20/16/15 38/16/15 37/15/15 
f 30/11/13 29/10/13 25/12/13 28/13/13 
f 29/11/14 32/15/14 26/9/14 25/12/14 
f 32/9/19 34/14/19 27/14/19 26/9/19 
f 34/14/16 30/13/16 28/13/16 27/14/16 
# 16 polygons - 2 triangles

#
# object Box004
#

v  6.9694 0.0022 -1.8457
v  5.2977 0.0022 -1.8457
v  5.2977 0.0022 -3.0529
v  7.7977 0.0022 -1.8457
v  7.7977 0.0022 -3.0529
v  7.7977 2.9027 -3.0529
v  6.9694 2.9027 -3.0529
v  6.9694 2.9027 -1.8457
v  7.7977 2.9027 -1.8457
v  7.7977 1.1027 -3.0529
v  7.7977 1.1027 -1.8457
v  5.2977 1.1027 -3.0529
v  6.9694 1.1027 -3.0529
v  5.2977 1.1027 -1.8457
v  6.9694 1.1027 -1.8457
v  7.7977 0.0022 -0.0437
v  7.7977 1.1027 -0.0437
v  6.9694 1.1027 -0.0437
v  6.9694 0.0022 -0.0437
# 19 vertices

vn -0.0000 -1.0000 -0.0000
vn 0.0000 1.0000 0.0000
vn 1.0000 0.0000 -0.0000
vn -0.0000 0.0000 -1.0000
vn -1.0000 0.0000 0.0000
vn 0.0000 -0.0000 1.0000
vn 0.0000 -1.0000 -0.0000
vn -1.0000 -0.0000 0.0000
# 8 vertex normals

vt 1.0000 0.5000 0.0000
vt 1.0000 1.0000 0.0000
vt 0.0000 1.0000 0.0000
vt 1.0000 0.0000 0.0000
vt 0.0000 0.0000 0.0000
vt 0.0000 0.5000 0.0000
vt 0.5000 1.0000 0.0000
vt 0.5000 0.0000 0.0000
# 8 texture coords

g Box004
usemtl 01___Default
s 2
f 39/17/20 40/18/20 41/19/20 42/20/20 
f 42/20/20 41/19/20 43/21/20 
s 4
f 44/20/21 45/17/21 46/22/21 47/21/21 
s 8
f 42/21/22 43/20/22 48/18/22 49/19/22 
s 16
f 43/21/23 41/20/23 50/18/23 51/23/23 
f 43/21/23 51/23/23 48/19/23 
s 32
f 41/21/24 40/20/24 52/18/24 50/19/24 
s 64
f 39/24/25 53/23/25 52/19/25 40/21/25 
s 4
f 50/18/21 52/19/21 53/22/21 51/17/21 
s 64
f 54/20/25 55/18/25 56/23/25 57/24/25 
s off
f 39/17/26 42/20/26 54/20/26 57/24/26 
f 42/21/22 49/19/22 55/18/22 54/20/22 
f 49/21/21 53/22/21 56/23/21 55/18/21 
f 53/23/24 39/24/24 57/24/24 56/23/24 
f 49/19/22 48/18/22 44/20/22 47/21/22 
f 48/19/23 51/23/23 45/17/23 44/20/23 
f 51/17/27 53/22/27 46/22/27 45/17/27 
f 53/22/25 49/21/25 47/21/25 46/22/25 
# 16 polygons - 2 triangles

#
# object Box005
#

v  -0.9849 0.0022 -2.2227
v  -0.9849 0.0022 -0.5509
v  -2.1921 0.0022 -0.5509
v  -0.9849 0.0022 -3.0509
v  -2.1921 0.0022 -3.0509
v  -2.1921 2.9027 -3.0509
v  -2.1921 2.9027 -2.2227
v  -0.9849 2.9027 -2.2227
v  -0.9849 2.9027 -3.0509
v  -2.1921 1.1027 -3.0509
v  -0.9849 1.1027 -3.0509
v  -2.1921 1.1027 -0.5509
v  -2.1921 1.1027 -2.2227
v  -0.9849 1.1027 -0.5509
v  -0.9849 1.1027 -2.2227
v  0.8171 0.0022 -3.0509
v  0.8171 1.1027 -3.0509
v  0.8171 1.1027 -2.2227
v  0.8171 0.0022 -2.2227
# 19 vertices

vn 0.0000 -1.0000 0.0000
vn -0.0000 1.0000 -0.0000
vn -0.0000 -0.0000 -1.0000
vn -1.0000 -0.0000 0.0000
vn 0.0000 0.0000 1.0000
vn 1.0000 0.0000 -0.0000
# 6 vertex normals

vt 1.0000 0.5000 0.0000
vt 1.0000 1.0000 0.0000
vt 0.0000 1.0000 0.0000
vt 1.0000 0.0000 0.0000
vt 0.0000 0.0000 0.0000
vt 0.0000 0.5000 0.0000
vt 0.5000 1.0000 0.0000
vt 0.5000 0.0000 0.0000
# 8 texture coords

g Box005
usemtl 01___Default
s 2
f 58/25/28 59/26/28 60/27/28 61/28/28 
f 61/28/28 60/27/28 62/29/28 
s 4
f 63/28/29 64/25/29 65/30/29 66/29/29 
s 8
f 61/29/30 62/28/30 67/26/30 68/27/30 
s 16
f 62/29/31 60/28/31 69/26/31 70/31/31 
f 62/29/31 70/31/31 67/27/31 
s 32
f 60/29/32 59/28/32 71/26/32 69/27/32 
s 64
f 58/32/33 72/31/33 71/27/33 59/29/33 
s 4
f 69/26/29 71/27/29 72/30/29 70/25/29 
s 64
f 73/28/33 74/26/33 75/31/33 76/32/33 
s off
f 58/25/28 61/28/28 73/28/28 76/32/28 
f 61/29/30 68/27/30 74/26/30 73/28/30 
f 68/29/29 72/30/29 75/31/29 74/26/29 
f 72/31/32 58/32/32 76/32/32 75/31/32 
f 68/27/30 67/26/30 63/28/30 66/29/30 
f 67/27/31 70/31/31 64/25/31 63/28/31 
f 70/25/32 72/30/32 65/30/32 64/25/32 
f 72/30/33 68/29/33 66/29/33 65/30/33 
# 16 polygons - 2 triangles

#
# object Box006
#

v  6.6011 9.9435 -2.0964
v  6.6011 9.9435 -0.4246
v  7.8083 9.9435 -0.4246
v  6.6011 9.9435 -2.9246
v  7.8083 9.9435 -2.9246
v  7.8083 7.0430 -2.9246
v  7.8083 7.0430 -2.0964
v  6.6011 7.0430 -2.0964
v  6.6011 7.0430 -2.9246
v  7.8083 8.8430 -2.9246
v  6.6011 8.8430 -2.9246
v  7.8083 8.8430 -0.4246
v  7.8083 8.8430 -2.0964
v  6.6011 8.8430 -0.4246
v  6.6011 8.8430 -2.0964
v  4.7991 9.9435 -2.9246
v  4.7991 8.8430 -2.9246
v  4.7991 8.8430 -2.0964
v  4.7991 9.9435 -2.0964
# 19 vertices

vn -0.0000 1.0000 -0.0000
vn 0.0000 -1.0000 0.0000
vn 0.0000 -0.0000 -1.0000
vn 1.0000 0.0000 -0.0000
vn 0.0000 0.0000 1.0000
vn -1.0000 0.0000 -0.0000
vn -1.0000 -0.0000 0.0000
vn 0.0000 1.0000 -0.0000
vn -0.0000 0.0000 1.0000
# 9 vertex normals

vt 1.0000 0.5000 0.0000
vt 1.0000 1.0000 0.0000
vt 0.0000 1.0000 0.0000
vt 1.0000 0.0000 0.0000
vt 0.0000 0.0000 0.0000
vt 0.0000 0.5000 0.0000
vt 0.5000 1.0000 0.0000
vt 0.5000 0.0000 0.0000
# 8 texture coords

g Box006
usemtl 01___Default
s 2
f 77/33/34 78/34/34 79/35/34 80/36/34 
f 80/36/34 79/35/34 81/37/34 
s 4
f 82/36/35 83/33/35 84/38/35 85/37/35 
s 8
f 80/37/36 81/36/36 86/34/36 87/35/36 
s 16
f 81/37/37 79/36/37 88/34/37 89/39/37 
f 81/37/37 89/39/37 86/35/37 
s 32
f 79/37/38 78/36/38 90/34/38 88/35/38 
s 64
f 77/40/39 91/39/39 90/35/39 78/37/39 
s 4
f 88/34/35 90/35/35 91/38/35 89/33/35 
s 64
f 92/36/40 93/34/40 94/39/40 95/40/40 
s off
f 77/33/41 80/36/41 92/36/41 95/40/41 
f 80/37/36 87/35/36 93/34/36 92/36/36 
f 87/37/35 91/38/35 94/39/35 93/34/35 
f 91/39/42 77/40/42 95/40/42 94/39/42 
f 87/35/36 86/34/36 82/36/36 85/37/36 
f 86/35/37 89/39/37 83/33/37 82/36/37 
f 89/33/42 91/38/42 84/38/42 83/33/42 
f 91/38/39 87/37/39 85/37/39 84/38/39 
# 16 polygons - 2 triangles

#
# object Box007
#

v  -2.1761 8.7723 -2.0964
v  -2.1761 8.7723 -0.4246
v  -2.1761 9.9795 -0.4246
v  -2.1761 8.7723 -2.9246
v  -2.1761 9.9795 -2.9246
v  0.7244 9.9795 -2.9246
v  0.7244 9.9795 -2.0964
v  0.7244 8.7723 -2.0964
v  0.7244 8.7723 -2.9246
v  -1.0756 9.9795 -2.9246
v  -1.0756 8.7723 -2.9246
v  -1.0756 9.9795 -0.4246
v  -1.0756 9.9795 -2.0964
v  -1.0756 8.7723 -0.4246
v  -1.0756 8.7723 -2.0964
v  -2.1761 6.9703 -2.9246
v  -1.0756 6.9703 -2.9246
v  -1.0756 6.9703 -2.0964
v  -2.1761 6.9703 -2.0964
# 19 vertices

vn -1.0000 -0.0000 -0.0000
vn 1.0000 -0.0000 0.0000
vn 0.0000 0.0000 -1.0000
vn -0.0000 1.0000 0.0000
vn -0.0000 -0.0000 1.0000
vn 0.0000 -1.0000 -0.0000
vn 1.0000 0.0000 0.0000
vn -1.0000 0.0000 -0.0000
# 8 vertex normals

vt 1.0000 0.5000 0.0000
vt 1.0000 1.0000 0.0000
vt 0.0000 1.0000 0.0000
vt 1.0000 0.0000 0.0000
vt 0.0000 0.0000 0.0000
vt 0.0000 0.5000 0.0000
vt 0.5000 1.0000 0.0000
vt 0.5000 0.0000 0.0000
# 8 texture coords

g Box007
usemtl 01___Default
s 2
f 96/41/43 97/42/43 98/43/43 99/44/43 
f 99/44/43 98/43/43 100/45/43 
s 4
f 101/44/44 102/41/44 103/46/44 104/45/44 
s 8
f 99/45/45 100/44/45 105/42/45 106/43/45 
s 16
f 100/45/46 98/44/46 107/42/46 108/47/46 
f 100/45/46 108/47/46 105/43/46 
s 32
f 98/45/47 97/44/47 109/42/47 107/43/47 
s 64
f 96/48/48 110/47/48 109/43/48 97/45/48 
s 4
f 107/42/49 109/43/49 110/46/49 108/41/44 
s 64
f 111/44/48 112/42/48 113/47/48 114/48/48 
s off
f 96/41/50 99/44/50 111/44/50 114/48/50 
f 99/45/45 106/43/45 112/42/45 111/44/45 
f 106/45/44 110/46/44 113/47/44 112/42/44 
f 110/47/47 96/48/47 114/48/47 113/47/47 
f 106/43/45 105/42/45 101/44/45 104/45/45 
f 105/43/46 108/47/46 102/41/46 101/44/46 
f 108/41/47 110/46/47 103/46/47 102/41/47 
f 110/46/48 106/45/48 104/45/48 103/46/48 
# 16 polygons - 2 triangles

#
# object Box008
#

v  6.9694 9.9853 5.8583
v  5.2977 9.9853 5.8583
v  5.2977 9.9853 7.0655
v  7.7977 9.9853 5.8583
v  7.7977 9.9853 7.0655
v  7.7977 7.0847 7.0655
v  6.9694 7.0847 7.0655
v  6.9694 7.0847 5.8583
v  7.7977 7.0847 5.8583
v  7.7977 8.8847 7.0655
v  7.7977 8.8847 5.8583
v  5.2977 8.8847 7.0655
v  6.9694 8.8847 7.0655
v  5.2977 8.8847 5.8583
v  6.9694 8.8847 5.8583
v  7.7977 9.9853 4.0563
v  7.7977 8.8847 4.0563
v  6.9694 8.8847 4.0563
v  6.9694 9.9853 4.0563
# 19 vertices

vn 0.0000 1.0000 0.0000
vn -0.0000 -1.0000 -0.0000
vn 1.0000 0.0000 -0.0000
vn 0.0000 -0.0000 1.0000
vn -1.0000 0.0000 0.0000
vn -0.0000 0.0000 -1.0000
vn 0.0000 -1.0000 -0.0000
vn -0.0000 -0.0000 -1.0000
vn -1.0000 -0.0000 0.0000
# 9 vertex normals

vt 1.0000 0.5000 0.0000
vt 1.0000 1.0000 0.0000
vt 0.0000 1.0000 0.0000
vt 1.0000 0.0000 0.0000
vt 0.0000 0.0000 0.0000
vt 0.0000 0.5000 0.0000
vt 0.5000 1.0000 0.0000
vt 0.5000 0.0000 0.0000
# 8 texture coords

g Box008
usemtl 01___Default
s 2
f 115/49/51 116/50/51 117/51/51 118/52/51 
f 118/52/51 117/51/51 119/53/51 
s 4
f 120/52/52 121/49/52 122/54/52 123/53/52 
s 8
f 118/53/53 119/52/53 124/50/53 125/51/53 
s 16
f 119/53/54 117/52/54 126/50/54 127/55/54 
f 119/53/54 127/55/54 124/51/54 
s 32
f 117/53/55 116/52/55 128/50/55 126/51/55 
s 64
f 115/56/56 129/55/56 128/51/56 116/53/56 
s 4
f 126/50/57 128/51/57 129/54/57 127/49/52 
s 64
f 130/52/58 131/50/58 132/55/58 133/56/58 
s off
f 115/49/51 118/52/51 130/52/51 133/56/51 
f 118/53/53 125/51/53 131/50/53 130/52/53 
f 125/53/52 129/54/52 132/55/52 131/50/52 
f 129/55/59 115/56/59 133/56/59 132/55/59 
f 125/51/53 124/50/53 120/52/53 123/53/53 
f 124/51/54 127/55/54 121/49/54 120/52/54 
f 127/49/55 129/54/55 122/54/55 121/49/55 
f 129/54/56 125/53/56 123/53/56 122/54/56 
# 16 polygons - 2 triangles

#
# object Box009
#

v  -0.9849 9.9853 6.2353
v  -0.9849 9.9853 4.5635
v  -2.1921 9.9853 4.5635
v  -0.9849 9.9853 7.0635
v  -2.1921 9.9853 7.0635
v  -2.1921 7.0847 7.0635
v  -2.1921 7.0847 6.2353
v  -0.9849 7.0847 6.2353
v  -0.9849 7.0847 7.0635
v  -2.1921 8.8847 7.0635
v  -0.9849 8.8847 7.0635
v  -2.1921 8.8847 4.5635
v  -2.1921 8.8847 6.2353
v  -0.9849 8.8847 4.5635
v  -0.9849 8.8847 6.2353
v  0.8171 9.9853 7.0635
v  0.8171 8.8847 7.0635
v  0.8171 8.8847 6.2353
v  0.8171 9.9853 6.2353
# 19 vertices

vn -0.0000 1.0000 -0.0000
vn 0.0000 -1.0000 0.0000
vn 0.0000 0.0000 1.0000
vn -1.0000 -0.0000 0.0000
vn -0.0000 -0.0000 -1.0000
vn 1.0000 0.0000 -0.0000
vn 1.0000 -0.0000 -0.0000
# 7 vertex normals

vt 1.0000 0.5000 0.0000
vt 1.0000 1.0000 0.0000
vt 0.0000 1.0000 0.0000
vt 1.0000 0.0000 0.0000
vt 0.0000 0.0000 0.0000
vt 0.0000 0.5000 0.0000
vt 0.5000 1.0000 0.0000
vt 0.5000 0.0000 0.0000
# 8 texture coords

g Box009
usemtl 01___Default
s 2
f 134/57/60 135/58/60 136/59/60 137/60/60 
f 137/60/60 136/59/60 138/61/60 
s 4
f 139/60/61 140/57/61 141/62/61 142/61/61 
s 8
f 137/61/62 138/60/62 143/58/62 144/59/62 
s 16
f 138/61/63 136/60/63 145/58/63 146/63/63 
f 138/61/63 146/63/63 143/59/63 
s 32
f 136/61/64 135/60/64 147/58/64 145/59/64 
s 64
f 134/64/65 148/63/65 147/59/65 135/61/65 
s 4
f 145/58/61 147/59/61 148/62/61 146/57/61 
s 64
f 149/60/66 150/58/66 151/63/66 152/64/66 
s off
f 134/57/60 137/60/60 149/60/60 152/64/60 
f 137/61/62 144/59/62 150/58/62 149/60/62 
f 144/61/61 148/62/61 151/63/61 150/58/61 
f 148/63/64 134/64/64 152/64/64 151/63/64 
f 144/59/62 143/58/62 139/60/62 142/61/62 
f 143/59/63 146/63/63 140/57/63 139/60/63 
f 146/57/64 148/62/64 141/62/64 140/57/64 
f 148/62/65 144/61/65 142/61/65 141/62/65 
# 16 polygons - 2 triangles

